<?xml version="1.0" encoding="UTF-8"?>
<svg width="173px" height="55px" viewBox="0 0 173 55" version="1.1" xmlns="http://www.w3.org/2000/svg" xmlns:xlink="http://www.w3.org/1999/xlink">
    <!-- Generator: sketchtool 59.1 (101010) - https://sketch.com -->
    <title>A27A8972-C0BB-43FE-9727-047DBCC0E535@3x</title>
    <desc>Created with sketchtool.</desc>
    <defs>
        <polygon id="path-1" points="0.133630475 0 34.2098197 0 34.2098197 47.6432842 0.133630475 47.6432842"></polygon>
        <polygon id="path-3" points="0.0423389735 0.533 11.801 0.533 11.801 33.644 0.0423389735 33.644"></polygon>
    </defs>
    <g id="Site" stroke="none" stroke-width="1" fill="none" fill-rule="evenodd">
        <g id="Home-" transform="translate(-132.000000, -24.000000)">
            <g id="Group-3">
                <g id="Group-41" transform="translate(132.000000, 24.000000)">
                    <path d="M2.6974,15.2508 L20.8714,13.2698 L20.8714,17.9388 L13.1164,18.7848 L13.1164,40.3538 L7.7544,40.9388 L7.7544,19.3688 L0.000389995871,20.2138 L0.000389995871,18.3628 C-0.0036,16.8568 1.1924,15.4148 2.6974,15.2508" id="Fill-1" fill="#002176"></path>
                    <path d="M21.0632,28.9515 C21.2172,22.3375 24.7282,18.6745 31.5592,17.9295 L32.2932,17.8495 L32.2932,23.1745 L30.5572,23.3645 C27.7012,23.6765 26.2732,25.3355 26.2732,28.3065 L26.2732,38.9165 L21.0652,39.4855 L21.0652,28.9515 L21.0632,28.9515 Z" id="Fill-3" fill="#002176"></path>
                    <path d="M38.1154,17.2166 C39.7744,17.0356 40.5844,17.7586 40.5844,19.4156 L40.5844,37.3576 L35.4534,37.9166 L35.4534,17.5056 L38.1154,17.2166 Z M38.1154,11.3896 C39.8124,11.2056 40.6224,11.9666 40.5844,13.6296 L40.5844,15.1346 L35.4534,15.6936 L35.4534,11.6806 L38.1154,11.3896 Z" id="Fill-5" fill="#002176"></path>
                    <path d="M48.6086,26.2196 C48.5706,30.3526 49.9586,32.2836 52.8916,31.9646 C55.8246,31.6456 57.2906,29.4026 57.2906,25.2726 C57.1746,21.3496 55.7476,19.5776 52.9696,19.8796 C50.1906,20.1816 48.7626,22.2676 48.6086,26.2196 L48.6086,26.2196 Z M48.6086,18.9276 C49.9206,16.6616 51.8496,15.4106 54.3956,15.1336 C59.8366,14.7336 62.5376,17.9886 62.5376,24.9326 C62.5376,31.7226 59.3746,35.5026 53.0456,36.3086 C46.6796,37.0406 43.4776,34.3406 43.4776,28.2066 L43.4776,10.8046 L46.0636,10.5236 C47.7606,10.3386 48.6106,11.1336 48.6106,12.8306 L48.6106,18.9276 L48.6086,18.9276 Z" id="Fill-7" fill="#002176"></path>
                    <path d="M82.0212,24.701 C82.0212,28.212 81.1332,30.624 79.3202,31.94 C77.5052,33.18 75.5002,33.938 73.3012,34.178 C71.1792,34.409 69.2882,34.036 67.5142,33.071 C65.7392,32.145 64.8532,30.005 64.8532,26.572 L64.8532,14.302 L69.9842,13.743 L69.9842,27.054 C69.9842,29.332 71.1412,30.324 73.4572,30.071 C75.7722,29.818 76.9302,28.573 76.9302,26.298 L76.9302,15.532 C76.8922,13.838 77.7022,12.901 79.3992,12.717 L82.0232,12.431 L82.0232,24.701 L82.0212,24.701 Z" id="Fill-9" fill="#002176"></path>
                    <path d="M99.0349,30.9857 C97.3379,31.0557 96.4899,30.3377 96.4899,28.7177 L96.4899,18.2217 C96.3739,16.1117 95.2159,15.1977 92.9399,15.4447 C90.6649,15.6917 89.5079,16.8607 89.4679,18.9857 L89.4679,32.0277 L84.2589,32.5957 L84.2589,20.5967 C84.2589,14.7697 87.1919,11.5577 93.0159,10.9227 C98.8429,10.2877 101.6979,12.8687 101.6579,18.6997 L101.6579,30.6987 L99.0349,30.9857 Z" id="Fill-11" fill="#002176"></path>
                    <path d="M115.739,20.7923 L115.739,18.9003 C114.544,19.5323 113.154,20.1073 111.65,20.5813 C109.604,21.1893 108.563,22.2673 108.563,23.7733 C108.678,25.3813 109.527,26.0603 111.148,25.8833 C114.004,25.5733 115.739,23.6873 115.739,20.7923 M109.259,14.7853 L104.126,15.3463 C104.744,11.4983 107.405,9.3553 112.112,8.8423 C117.745,8.2283 120.6,9.7683 120.716,13.5383 L120.716,20.4823 C120.716,26.1153 117.321,28.9933 111.804,29.9813 C106.903,30.9013 103.508,28.9953 103.508,24.4823 C103.624,19.5703 107.174,17.8703 112.343,16.8063 C114.544,16.2963 115.661,15.5193 115.661,14.3993 C115.546,13.2543 114.466,12.7923 112.343,13.0243 C110.53,13.2183 109.528,13.7923 109.259,14.7853" id="Fill-13" fill="#002176"></path>
                    <path d="M129.0876,3.9818 L129.0876,27.7108 L123.9566,28.2688 L123.9566,2.0328 L126.6186,1.7428 C127.9686,1.5958 129.0876,2.6318 129.0876,3.9818" id="Fill-15" fill="#002176"></path>
                    <path d="M65.2219,54.9422 C60.6119,55.4432 58.3169,52.6492 58.3169,47.9732 C58.3169,43.1402 60.7429,39.9642 65.4879,39.4472 C67.3189,39.2472 68.7979,39.5262 69.9229,40.3312 C70.9819,41.1632 71.5769,42.4012 71.7329,44.0172 L69.8799,44.2182 C69.2179,44.2912 68.7329,44.0342 68.4459,43.4692 C67.9379,42.4422 66.9459,42.0002 65.4899,42.1592 C62.6439,42.4692 61.3859,44.6142 61.3859,47.6362 C61.3859,50.5712 62.5979,52.5122 65.4009,52.2062 C67.3209,51.9972 68.4229,50.8182 68.7539,49.1272 L71.7329,48.8012 C71.4439,52.3012 69.0159,54.5292 65.2219,54.9422" id="Fill-17" fill="#002176"></path>
                    <path d="M76.0974,47.7562 C76.1194,50.0262 76.8924,51.0892 78.3924,50.9252 C79.8914,50.7612 80.6424,49.4882 80.6634,47.1692 C80.6634,44.8972 79.9124,43.8532 78.4124,44.0172 C76.8684,44.1862 76.0974,45.4392 76.0974,47.7562 M83.7324,46.9232 C83.7324,50.9382 81.9454,53.1632 78.4144,53.5482 C74.8844,53.9322 73.1204,52.0962 73.1204,48.0812 C73.1204,44.0232 74.8844,41.8212 78.4144,41.4372 C81.9454,41.0512 83.7324,42.8652 83.7324,46.9232" id="Fill-19" fill="#002176"></path>
                    <path d="M93.5925,51.6307 C92.6205,51.6707 92.1365,51.2597 92.1365,50.3337 L92.1365,44.3327 C92.0705,43.1257 91.4075,42.6027 90.1065,42.7447 C88.8035,42.8877 88.1425,43.5547 88.1195,44.7697 L88.1195,52.2257 L85.1405,52.5507 L85.1405,45.6897 C85.1405,42.3597 86.8175,40.5207 90.1505,40.1577 C93.4805,39.7947 95.1135,41.2717 95.0925,44.6067 L95.0925,51.4647 L93.5925,51.6307 Z" id="Fill-21" fill="#002176"></path>
                    <path d="M99.6589,41.3934 L99.3499,41.4274 L99.3499,47.8914 C99.3499,48.3754 99.6379,48.6094 100.2119,48.5474 L101.1169,48.4484 L101.1169,50.6764 C100.1679,50.8684 99.1319,50.9804 98.0269,50.9904957 C96.9249,50.9994 96.3939,50.3734 96.4179,49.0694 L96.4179,36.3174 L97.9399,36.1524 C98.7119,36.0684 99.3519,36.7044 99.3519,37.4774 L99.3519,39.3304 L101.1169,39.1394 L101.1169,39.7774 C101.1149,40.6184 100.4739,41.3044 99.6589,41.3934" id="Fill-23" fill="#002176"></path>
                    <path d="M104.3122,38.7909 C105.2602,38.6879 105.7242,39.1009 105.7242,40.0499 L105.7242,50.3079 L102.7902,50.6269 L102.7902,38.9569 L104.3122,38.7909 Z M104.3122,35.4589 C105.2842,35.3529 105.7462,35.7879 105.7242,36.7379 L105.7242,37.5989 L102.7902,37.9179 L102.7902,35.6239 L104.3122,35.4589 Z" id="Fill-25" fill="#002176"></path>
                    <path d="M115.1882,43.5399 C115.2102,41.1769 114.3932,40.0969 112.7162,40.2799 C111.0402,40.4619 110.2242,41.7209 110.2242,44.0819 C110.2912,46.3249 111.0852,47.3629 112.6722,47.1899 C114.2602,47.0169 115.1002,45.7999 115.1882,43.5399 M107.2022,44.3209 C107.2022,40.4389 109.0112,38.3009 112.6282,37.8389 C116.2692,37.4199 118.1002,38.9409 118.1002,42.4489 L118.1002,49.3529 C118.1002,52.2889 116.2472,53.9669 112.5192,54.4399 C109.8712,54.7289 108.1942,53.6759 107.5112,51.2789 L110.7542,50.9249 C110.9542,51.7429 111.6362,52.0639 112.8512,51.9329 C114.3952,51.7639 115.1902,50.7729 115.1902,48.9629 L115.1902,47.7709 C114.4392,49.0009 113.3152,49.6969 111.8592,49.8549 C108.7472,50.1989 107.2022,48.3379 107.2022,44.3209" id="Fill-27" fill="#002176"></path>
                    <path d="M122.3581,42.7127 C122.3811,44.9827 123.1531,46.0457 124.6531,45.8817 C126.1531,45.7187 126.9041,44.4447 126.9241,42.1257 C126.9241,39.8537 126.1731,38.8097 124.6731,38.9737 C123.1301,39.1447 122.3581,40.3977 122.3581,42.7127 M129.9911,41.8817 C129.9911,45.8967 128.2041,48.1217 124.6731,48.5067 C121.1431,48.8907 119.3791,47.0547 119.3791,43.0397 C119.3791,38.9817 121.1431,36.7797 124.6731,36.3957 C128.2041,36.0097 129.9911,37.8217 129.9911,41.8817" id="Fill-29" fill="#002176"></path>
                    <g id="Group-33" transform="translate(138.000000, 0.000000)">
                        <mask id="mask-2" fill="white">
                            <use xlink:href="#path-1"></use>
                        </mask>
                        <g id="Clip-32"></g>
                        <path d="M0.6139,30.8714 C0.0519,30.3904 0.0479,29.4054 0.2729,28.7804 C0.5719,27.9494 1.2509,27.2864 1.9939,26.8434 C3.6119,25.8814 5.5849,25.8034 7.0359,27.0444 C9.5599,29.2004 11.7209,31.6814 13.7579,34.2704 C14.3159,30.1704 15.2879,26.1154 16.5029,22.2374 C18.8879,14.6204 22.4629,7.1844 27.9539,1.3144 C29.1559,0.0314 31.6549,-0.4366 33.1819,0.4724 C34.8589,1.4724 34.2179,3.2674 33.1439,4.4154 C33.0279,4.5384 32.9139,4.6644 32.7999,4.7894 C32.7809,4.8124 32.7629,4.8314 32.7509,4.8444 C32.4739,5.1714 32.2029,5.5004 31.9369,5.8354 C31.3949,6.5274 30.8739,7.2324 30.3819,7.9584 C29.8709,8.7094 29.3799,9.4754 28.9179,10.2554 C28.6819,10.6544 28.4479,11.0574 28.2239,11.4624 C28.1099,11.6674 27.9979,11.8724 27.8849,12.0784 C27.8649,12.1184 27.8109,12.2204 27.7599,12.3134 C26.0019,15.7544 24.5759,19.3624 23.4609,23.0644 C22.8879,24.9524 22.3859,26.8624 21.9709,28.7914 C21.9189,29.0314 21.8669,29.2684 21.8199,29.5084 C21.8079,29.5734 21.7279,29.9774 21.7219,29.9934 C21.6499,30.3794 21.5799,30.7634 21.5149,31.1504 C21.3559,32.0884 21.2139,33.0294 21.0949,33.9704 C20.6719,37.3694 20.4969,40.8094 20.7679,44.2254 C20.8849,45.7014 19.1639,46.9124 17.9829,47.3344 C16.7339,47.7814 14.7899,47.8754 13.8579,46.7034 C9.5959,41.3024 5.8929,35.3864 0.6139,30.8714" id="Fill-31" fill="#002176" mask="url(#mask-2)"></path>
                    </g>
                    <path d="M148.0807,45.722 L144.9037,45.983 C141.8497,46.234 139.1627,43.954 138.9127,40.903 L138.3327,33.85 C139.9467,35.377 141.4137,37.042 142.8287,38.799 L142.9737,40.571 C143.0417,41.384 143.7567,41.993 144.5717,41.924 L145.2047,41.871 C145.6747,42.494 146.1437,43.127 146.6167,43.766 C147.0987,44.41 147.5867,45.066 148.0807,45.722" id="Fill-34" fill="#002176"></path>
                    <g id="Group-38" transform="translate(161.000000, 11.000000)">
                        <mask id="mask-4" fill="white">
                            <use xlink:href="#path-3"></use>
                        </mask>
                        <g id="Clip-37"></g>
                        <path d="M7.7223,27.451 L5.8453,4.654 C5.8453,4.637 5.8413,4.623 5.8403,4.604 C6.1803,3.863 6.5323,3.131 6.8993,2.412 L6.9803,2.251 L7.0133,2.19 C7.1143,2.002 7.2183,1.818 7.3263,1.62 C7.5343,1.242 7.7563,0.86 7.9513,0.533 C9.0393,1.452 9.7793,2.787 9.9063,4.317 L11.7833,27.114 C12.0343,30.167 9.7523,32.853 6.7013,33.106 L0.1693,33.644 C0.1823,33.447 0.1803,33.245 0.1673,33.04 C0.0773,31.916 0.0353,30.763 0.0433,29.567 L6.3703,29.046 C7.1803,28.981 7.7883,28.264 7.7223,27.451" id="Fill-36" fill="#002176" mask="url(#mask-4)"></path>
                    </g>
                    <path d="M141.0983,17.7738 L141.5923,23.7788 C140.6193,23.9118 139.6523,24.2528 138.7663,24.7808 C138.3593,25.0228 137.9903,25.3018 137.6543,25.6038 L137.0363,18.1078 C136.7863,15.0548 139.0643,12.3668 142.1193,12.1158 L156.4663,10.9358 C155.7763,12.2968 155.1213,13.7128 154.5083,15.1848 L142.4523,16.1748 C141.6403,16.2428 141.0323,16.9598 141.0983,17.7738" id="Fill-39" fill="#002176"></path>
                </g>
            </g>
        </g>
    </g>
</svg>